<svg width="51" height="51" viewBox="0 0 51 51" fill="none" xmlns="http://www.w3.org/2000/svg">
<mask id="mask0_330_1156" style="mask-type:alpha" maskUnits="userSpaceOnUse" x="0" y="0" width="51" height="51">
<circle cx="25.5" cy="25.5" r="13" stroke="white" stroke-width="25"/>
</mask>
<g mask="url(#mask0_330_1156)">
<path d="M31.8523 31.5381C30.594 31.5381 29.493 32.1672 28.7852 32.6391C28.392 32.875 28.392 33.4255 28.7852 33.7401C29.4144 34.2119 30.5153 34.841 31.8523 34.841C33.1105 34.841 34.2115 34.2119 34.8406 33.7401C35.2339 33.5041 35.2339 32.9536 34.8406 32.6391C34.2115 32.2459 33.1105 31.5381 31.8523 31.5381Z" fill="white"/>
<path d="M19.4268 31.5381C18.1686 31.5381 17.0676 32.1672 16.4384 32.6391C16.0452 32.875 16.0452 33.4255 16.4384 33.7401C17.0676 34.2119 18.1686 34.841 19.4268 34.841C20.6851 34.841 21.7861 34.2119 22.4152 33.7401C22.8084 33.5041 22.8084 32.9536 22.4152 32.6391C21.7861 32.2459 20.6851 31.5381 19.4268 31.5381Z" fill="white"/>
<path d="M-1.02 4.8786V19.506C-1.02 33.1897 5.58591 46.1656 16.5958 54.3443L25.6396 60.9502L34.6834 54.3443C45.6932 46.2442 52.2992 33.1897 52.2992 19.506V4.8786L25.6396 -1.01953L-1.02 4.8786ZM37.5931 37.6722C35.6271 37.9082 32.6387 38.1441 30.1222 38.2227C29.493 38.2227 28.7852 37.9868 28.3134 37.515L27.527 36.6499C27.0551 36.178 26.5046 35.9421 25.8755 35.9421C25.2464 35.9421 24.6172 36.178 24.224 36.6499L23.2803 37.5936C22.8085 38.0654 22.1793 38.3014 21.4716 38.3014C18.7977 38.1441 15.7307 37.9868 13.686 37.7509C12.6637 37.5936 11.8773 36.6499 12.0345 35.6276L13.0569 27.9207C16.4385 28.7071 20.9211 29.1003 25.5609 29.1003C30.2008 29.1003 34.6834 28.7071 38.1436 27.9207L39.166 35.6276C39.3232 36.5713 38.6155 37.515 37.5931 37.6722ZM28.3134 13.2146L31.4591 12.5069C33.0319 12.1137 34.6047 13.136 34.998 14.7088L36.8854 22.9662L38.5368 22.573L37.9863 20.2138C41.2107 21.0002 43.2553 22.0225 43.2553 23.2021C43.2553 25.4828 35.3912 27.3702 25.6396 27.3702C15.888 27.3702 8.02381 25.4828 8.02381 23.2021C8.02381 22.0225 10.0685 21.0002 13.2928 20.2138L12.7423 22.573L14.3938 22.9662L16.2812 14.7088C16.6744 13.136 18.2472 12.1137 19.8201 12.5069L22.9657 13.2146C24.6959 13.6078 26.5833 13.6078 28.3134 13.2146Z" fill="white"/>
</g>
</svg>
