<svg width="19" height="10" viewBox="0 0 19 10" fill="none" xmlns="http://www.w3.org/2000/svg">
<path d="M0 5C0 2.23636 2.337 0 5.225 0H15.2C17.2995 0 19 1.62727 19 3.63636C19 5.64545 17.2995 7.27273 15.2 7.27273H7.125C5.814 7.27273 4.75 6.25455 4.75 5C4.75 3.74545 5.814 2.72727 7.125 2.72727H14.25V4.54545H7.0395C6.517 4.54545 6.517 5.45455 7.0395 5.45455H15.2C16.245 5.45455 17.1 4.63636 17.1 3.63636C17.1 2.63636 16.245 1.81818 15.2 1.81818H5.225C3.3915 1.81818 1.9 3.24545 1.9 5C1.9 6.75455 3.3915 8.18182 5.225 8.18182H14.25V10H5.225C2.337 10 0 7.76364 0 5Z" fill="white"/>
</svg>
