<svg width="40" height="17" viewBox="0 0 40 17" fill="none" xmlns="http://www.w3.org/2000/svg">
<path fill-rule="evenodd" clip-rule="evenodd" d="M29.2446 15.4664C29.2446 15.4664 28.7784 13.1043 27.8874 11.8448C26.9965 10.5853 25.1859 9.3098 25.1859 9.3098C25.1859 9.3098 26.1012 8.62402 26.5818 8.34489C26.7196 8.24619 26.8744 8.17296 27.0387 8.12875L27.3902 8.54312C27.7809 8.96455 28.2571 9.29986 28.7877 9.52718C29.1303 9.67031 29.4861 9.78013 29.8502 9.85509C31.4865 10.2142 32.8406 9.45647 33.6824 8.79323C33.9387 8.59129 34.0943 8.29425 34.3327 8.07688L34.8162 8.32729C35.2795 8.60158 35.723 8.90739 36.1434 9.24249C37.064 10.0033 37.8031 10.9557 38.3078 12.0317C38.8124 13.1077 39.0701 14.2805 39.0624 15.4664H29.2446ZM31.7937 8.08676C31.5014 8.1571 31.2049 8.20867 30.9059 8.24114C30.3225 8.28451 29.7373 8.18669 29.2009 7.95615C27.7165 7.35342 26.2374 5.54556 26.9421 3.33784C27.1115 2.77799 27.4088 2.26409 27.8112 1.83579C28.2135 1.4075 28.71 1.07627 29.2624 0.86767C29.5165 0.777226 29.7779 0.707923 30.0437 0.660484L30.4399 0.617564C32.4131 0.586687 33.6565 1.6078 34.2371 2.93984C34.6299 3.89702 34.633 4.96718 34.2459 5.92659C34.0229 6.44242 33.6875 6.90333 33.2637 7.27649C32.8398 7.64965 32.3379 7.92589 31.7937 8.08552V8.08676ZM28.1331 16.6737H11.4331C11.4256 15.4899 11.6826 14.3191 12.1857 13.2447C12.6888 12.1703 13.4257 11.2188 14.3437 10.4581C14.7582 10.126 15.1958 9.82303 15.6534 9.55157C15.7913 9.45285 15.9462 9.37963 16.1106 9.33543L16.4621 9.7498C16.8528 10.1712 17.329 10.5065 17.8596 10.7339C18.2022 10.877 18.558 10.9868 18.9221 11.0618C20.5587 11.4212 21.9127 10.6631 22.7543 9.99991C23.0109 9.79797 23.1665 9.50093 23.4046 9.28356L23.8881 9.53397C24.3514 9.80829 24.7948 10.1141 25.2152 10.4492C26.1357 11.2102 26.8746 12.1628 27.3791 13.2388C27.8835 14.3149 28.1409 15.4878 28.1331 16.6737ZM20.864 9.29405C20.5717 9.36443 20.2752 9.416 19.9762 9.44844C19.3928 9.4918 18.8076 9.39398 18.2712 9.16344C16.7868 8.56072 15.3077 6.75286 16.0124 4.54483C16.1818 3.98498 16.4792 3.47107 16.8815 3.04278C17.2838 2.61449 17.7803 2.28326 18.3327 2.07466C18.5869 1.98422 18.8482 1.91491 19.114 1.86747L19.5096 1.82424C21.4827 1.79337 22.7262 2.81448 23.3068 4.14652C23.6998 5.10367 23.7029 6.17389 23.3156 7.13327C23.0929 7.64941 22.7577 8.11066 22.334 8.48415C21.9102 8.85764 21.4083 9.13418 20.864 9.29405ZM10.4427 15.4664H0.624928C0.617117 14.2806 0.874661 13.1077 1.37913 12.0317C1.88361 10.9557 2.62254 10.0031 3.54305 9.24218C3.96345 8.90709 4.40692 8.60129 4.87024 8.32698L5.35368 8.07657C5.59212 8.29271 5.74774 8.59098 6.00399 8.79292C6.84555 9.45616 8.19962 10.2133 9.83618 9.85478C10.2003 9.77982 10.5561 9.67 10.8987 9.52687C11.4293 9.29955 11.9055 8.96424 12.2962 8.54281L12.6477 8.12844C12.8121 8.17262 12.967 8.24585 13.1049 8.34458C13.5856 8.62248 14.5009 9.30949 14.5009 9.30949C14.5009 9.30949 12.6902 10.585 11.7993 11.8448C10.9084 13.1046 10.4427 15.4664 10.4427 15.4664ZM8.78118 8.24114C8.48217 8.2087 8.18561 8.15713 7.89337 8.08676C7.34924 7.92719 6.84742 7.65104 6.42363 7.27799C5.99983 6.90494 5.6645 6.44415 5.44149 5.92844C5.05415 4.96906 5.05728 3.89884 5.45024 2.94169C6.03118 1.60872 7.2743 0.586687 9.24743 0.617564L9.64305 0.660792C9.90886 0.708232 10.1702 0.777535 10.4243 0.867978C10.9767 1.07658 11.4733 1.4078 11.8756 1.8361C12.2779 2.26439 12.5752 2.7783 12.7446 3.33815C13.449 5.54618 11.9702 7.35404 10.4856 7.95645C9.94928 8.18679 9.36428 8.28451 8.78118 8.24114Z" fill="white"/>
</svg>
