<svg width="12" height="14" viewBox="0 0 12 14" fill="none" xmlns="http://www.w3.org/2000/svg">
<path d="M6 0C3.89764 0 2.18182 1.76157 2.18182 3.92V5.04H1.09091C0.488182 5.04 0 5.5412 0 6.16V12.88C0 13.4988 0.488182 14 1.09091 14H10.9091C11.5118 14 12 13.4988 12 12.88V6.16C12 5.5412 11.5118 5.04 10.9091 5.04H9.81818V3.92C9.81818 1.83209 8.20177 0.150397 6.19389 0.0404687C6.1322 0.0149579 6.06649 0.00124273 6 0ZM6 1.12C7.51291 1.12 8.72727 2.36675 8.72727 3.92V5.04H3.27273V3.92C3.27273 2.36675 4.48709 1.12 6 1.12Z" fill="#A6A0A0"/>
</svg>
