<svg width="30" height="17" viewBox="0 0 30 17" fill="none" xmlns="http://www.w3.org/2000/svg">
<path d="M0 8.5C0 3.80182 3.69 0 8.25 0H24C27.315 0 30 2.76636 30 6.18182C30 9.59727 27.315 12.3636 24 12.3636H11.25C9.18 12.3636 7.5 10.6327 7.5 8.5C7.5 6.36727 9.18 4.63636 11.25 4.63636H22.5V7.72727H11.115C10.29 7.72727 10.29 9.27273 11.115 9.27273H24C25.65 9.27273 27 7.88182 27 6.18182C27 4.48182 25.65 3.09091 24 3.09091H8.25C5.355 3.09091 3 5.51727 3 8.5C3 11.4827 5.355 13.9091 8.25 13.9091H22.5V17H8.25C3.69 17 0 13.1982 0 8.5Z" fill="#545454" fill-opacity="0.5"/>
</svg>
