<svg width="21" height="14" viewBox="0 0 21 14" fill="none" xmlns="http://www.w3.org/2000/svg">
<path d="M15.8483 4.02178H3.80552L6.14049 1.79897C6.34361 1.59876 6.456 1.33062 6.45346 1.05229C6.45092 0.773967 6.33365 0.507725 6.12691 0.310911C5.92016 0.114097 5.64049 0.00245871 5.34812 4.01281e-05C5.05575 -0.00237845 4.77408 0.104616 4.56377 0.29798L0.326479 4.33174C0.117435 4.53081 0 4.80076 0 5.08224C0 5.36371 0.117435 5.63367 0.326479 5.83273L4.56377 9.8665C4.77408 10.0599 5.05575 10.1669 5.34812 10.1644C5.64049 10.162 5.92016 10.0504 6.12691 9.85356C6.33365 9.65675 6.45092 9.39051 6.45346 9.11218C6.456 8.83386 6.34361 8.56571 6.14049 8.36551L3.80552 6.14482H15.8483C16.6232 6.14482 17.3663 6.43783 17.9142 6.9594C18.462 7.48098 18.7698 8.18838 18.7698 8.92599C18.7698 9.6636 18.462 10.371 17.9142 10.8926C17.3663 11.4141 16.6232 11.7072 15.8483 11.7072V13.8302C17.2146 13.8302 18.525 13.3135 19.4911 12.3938C20.4572 11.4741 21 10.2267 21 8.92599C21 7.62531 20.4572 6.37791 19.4911 5.45819C18.525 4.53847 17.2146 4.02178 15.8483 4.02178Z" fill="white"/>
</svg>
